<?xml version="1.0" encoding="UTF-8" standalone="no"?>
<!-- Created with Inkscape (http://www.inkscape.org/) -->

<svg
   version="1.1"
   id="svg1"
   width="1060"
   height="682.66669"
   viewBox="0 0 1060 682.66669"
   xmlns="http://www.w3.org/2000/svg"
   xmlns:svg="http://www.w3.org/2000/svg">
  <defs
     id="defs1" />
  <g
     id="g1">
    <path
       style="fill:#000000"
       d="m 452.97354,655.73605 c -57.4095,-4.72061 -94.2736,-13.21602 -127.3775,-29.35448 -33.7505,-16.45369 -50.478,-34.88461 -57.4036,-63.24916 -1.3698,-5.61004 -1.8017,-22.57743 -1.8381,-72.20359 l -0.048,-64.87027 -13,-7.6356 c -7.15,-4.19958 -15.2371,-9.05797 -17.9714,-10.79641 -2.7343,-1.73844 -5.2229,-3.1608 -5.5304,-3.1608 -0.3074,0 -4.6002,-2.45512 -9.5394,-5.45583 -8.8162,-5.356 -12.6192,-7.56102 -24.6254,-14.2779 -3.3,-1.84619 -8.2892,-4.79358 -11.087,-6.54977 -2.7978,-1.75619 -6.9978,-4.28074 -9.3333,-5.61012 -6.121,-3.48406 -42.4626,-24.58966 -64.2464,-37.31139 -22.173106,-12.94911 -29.690106,-20.06447 -33.290906,-31.51235 -4.9537,-15.7491 -1.8631,-32.07805 8.1871,-43.25626 5.0147,-5.57757 9.210103,-8.53701 23.770506,-16.76763 1.4666,-0.82907 4.7666,-2.72701 7.3333,-4.21765 2.5667,-1.49064 12.1667,-7.05914 21.3333,-12.37444 20.0204,-11.60882 19.2784,-11.17791 46,-26.71384 11.7334,-6.82174 28.3834,-16.50184 37,-21.51133 8.6167,-5.00949 23.0167,-13.39626 32,-18.63727 8.9834,-5.241 27.4334,-15.95427 41,-23.80726 13.5667,-7.85299 34.2667,-19.85507 46,-26.6713 11.7334,-6.81622 25.2334,-14.612773 30,-17.325673 8.5613,-4.87257 48.8336,-28.234009 87.3334,-50.660938 14.4683,-8.428152 27.1445,-15.568755 30,-16.899332 15.912,-7.414569 30.5637,-5.488562 50.9461,6.697034 5.3463,3.196244 17.2205,10.185666 26.3872,15.532049 9.1667,5.346384 23.1375,13.533057 31.0462,18.192608 7.9088,4.659551 14.7162,8.471911 15.1275,8.471911 0.4114,0 2.3406,1.108442 4.2871,2.463204 1.9466,1.354762 6.8392,4.276115 10.8725,6.491894 4.0334,2.21578 14.6834,8.30735 23.6667,13.5368 36.5814,21.295123 48.6883,28.314733 70.3333,40.779723 12.4667,7.17932 25.3667,14.71056 28.6667,16.7361 3.3,2.02553 8.7,5.17738 12,7.00411 7.6451,4.23202 34.6148,19.87542 49.3333,28.61521 6.2334,3.70131 13.4334,7.92595 16,9.38809 2.5667,1.46214 14.5667,8.34875 26.6667,15.30357 12.1,6.95481 26.8,15.17671 32.6667,18.27086 5.8666,3.09416 11.6139,6.4773 12.7716,7.5181 1.1578,1.04079 2.5011,1.89235 2.9851,1.89235 2.1653,0 17.5432,12.89736 20.8952,17.52461 5.0887,7.02468 6.0975,11.196 43.97084,181.80873 24.5024,110.37886 24.3278,109.47243 22.7183,117.95954 -6.1043,32.18778 -45.25024,46.11367 -69.17074,24.60704 -11.0856,-9.96687 -13.2911,-16.22226 -25.3499,-71.89991 -16.4911,-76.14171 -33.4604,-153.18929 -34.0646,-154.66667 -0.2999,-0.73334 -0.5965,-0.43334 -0.659,0.66666 -0.062,1.1 -2.0599,3.12644 -4.4386,4.5032 -7.8058,4.51787 -12.1696,7.06343 -24.3249,14.18959 -6.6,3.86931 -19.2,11.22077 -28,16.33658 -28.7777,16.72973 -44.3893,25.86489 -51.6667,30.23292 l -5,3.00112 -0.047,64.8683 c -0.053,71.73964 -0.2171,73.48741 -8.4948,90.18346 -13.3878,27.00304 -43.5192,47.07321 -90.791,60.47485 -25.2964,7.17155 -59.0098,12.36877 -96.3606,14.85481 -26.4819,1.76262 -71.5702,1.43574 -97.6394,-0.70785 z m 89.9246,-81.95213 c 48.7542,-3.50786 86.7596,-11.43689 108.859,-22.71118 11.006,-5.61485 10.5497,-3.82957 10.5497,-41.27366 0,-25.78044 -0.3776,-33.33221 -1.6666,-33.32835 -0.9167,0.003 -3.7667,1.29131 -6.3334,2.86349 -2.5666,1.57219 -6.4666,3.8955 -8.6666,5.16293 -10.4343,6.01118 -54.8097,31.86439 -85,49.5211 -8.9834,5.25387 -21.7267,12.60387 -28.3184,16.33333 l -11.9851,6.78083 -14.0149,-0.0231 c -15.6915,-0.0258 -14.7477,0.31593 -38.8084,-14.05261 -7.2983,-4.35837 -13.4941,-7.92432 -13.7685,-7.92432 -0.2744,0 -4.4419,-2.3955 -9.2613,-5.32334 -8.6196,-5.23663 -25.1802,-14.94313 -69.0066,-40.44629 -12.1897,-7.09337 -22.8397,-12.89704 -23.6667,-12.89704 -1.0762,0 -1.5035,9.60342 -1.5035,33.79336 0,38.20374 -0.8629,35.13187 11.627,41.39032 17.0665,8.55172 47.7883,16.00406 80.373,19.49649 38.1922,4.09343 69.0981,4.90395 100.5913,2.63801 z m -17.5693,-115.48646 c 9.7046,-5.59255 20.3447,-11.82291 23.6447,-13.84524 3.3,-2.02233 8.7,-5.17384 12,-7.00336 8.9914,-4.9848 36.6462,-21.06386 48,-27.90814 5.5,-3.31551 15.7,-9.32705 22.6667,-13.35899 6.9666,-4.03194 18.0666,-10.49448 24.6666,-14.36121 14.7684,-8.6523 16.1529,-9.4589 36,-20.97219 43.2762,-25.10448 55.31,-32.50494 55.3242,-34.02268 0.01,-0.53538 -56.2408,-1.13538 -124.9908,-1.33333 l -125,-0.35991 -6.9555,-3.66655 c -14.524,-7.65634 -21.9799,-19.18783 -22.8267,-35.30462 -0.6488,-12.34802 2.382,-21.16769 10.3054,-29.98926 3.2211,-3.58623 8.9211,-8.13723 12.6666,-10.11333 l 6.8102,-3.59291 117.1405,-0.66667 c 125.0572,-0.71172 119.7956,-0.40389 109.1289,-6.38454 -1.6852,-0.94483 -11.5852,-6.70543 -22,-12.80133 -10.4149,-6.09591 -31.2361,-18.15913 -46.2694,-26.80716 -36.1872,-20.81692 -69.9351,-40.31257 -107.3334,-62.00484 -16.8666,-9.78323 -33.004,-19.13359 -35.8608,-20.77856 -5.9446,-3.42296 -6.2394,-3.35777 -18.8058,4.15875 -5.1334,3.07045 -17.4334,10.25442 -27.3334,15.96437 -9.9,5.70995 -31.5,18.18163 -48,27.71483 -16.5,9.5332 -33.9,19.55495 -38.6666,22.27056 -4.7667,2.71562 -20.3667,11.71324 -34.6667,19.99472 -14.3,8.28148 -39.5,22.84192 -56,32.35653 -16.5,9.51462 -32.174,18.57821 -34.8311,20.14132 -2.6571,1.56311 -16.3071,9.41049 -30.3334,17.43862 -14.0262,8.02813 -25.5022,14.95136 -25.5022,15.38495 0,0.43359 3.15,2.67632 7,4.98384 9.9077,5.93821 97.7702,57.29563 105,61.37463 3.3,1.86183 10.8,6.20879 16.6667,9.6599 14.0317,8.25427 47.4204,27.75661 63.3333,36.993 6.9667,4.04368 14.9038,8.77451 17.6381,10.51295 2.7343,1.73844 5.2564,3.1608 5.6047,3.1608 0.3482,0 6.5111,3.50132 13.6952,7.78072 7.1841,4.27939 19.062,11.28204 26.3954,15.56144 23.4089,13.66041 35.8063,20.95451 43.3333,25.49556 4.0333,2.43332 8.0932,4.44028 9.022,4.45991 0.9288,0.0196 9.6288,-4.54002 19.3333,-10.13258 z"
       id="path1" />
  </g>
</svg>
