<?xml version="1.0" encoding="UTF-8" standalone="no"?>
<!-- Created with Inkscape (http://www.inkscape.org/) -->

<svg
   version="1.1"
   id="svg1"
   width="2774.6667"
   height="682.66669"
   viewBox="0 0 2774.6667 682.66669"
   sodipodi:docname="logo_text.png"
   inkscape:export-filename="logo_text.svg"
   inkscape:export-xdpi="96"
   inkscape:export-ydpi="96"
   xmlns:inkscape="http://www.inkscape.org/namespaces/inkscape"
   xmlns:sodipodi="http://sodipodi.sourceforge.net/DTD/sodipodi-0.dtd"
   xmlns="http://www.w3.org/2000/svg"
   xmlns:svg="http://www.w3.org/2000/svg">
  <defs
     id="defs1" />
  <sodipodi:namedview
     id="namedview1"
     pagecolor="#505050"
     bordercolor="#ffffff"
     borderopacity="1"
     inkscape:showpageshadow="0"
     inkscape:pageopacity="0"
     inkscape:pagecheckerboard="1"
     inkscape:deskcolor="#505050">
    <inkscape:page
       x="0"
       y="0"
       width="2774.6667"
       height="682.66669"
       id="page2"
       margin="0"
       bleed="0" />
  </sodipodi:namedview>
  <g
     inkscape:groupmode="layer"
     inkscape:label="Image"
     id="g1">
    <path
       style="fill:#000000"
       d="m 392.29252,666.99584 c -1.05223,-0.67355 -5.55223,-1.64058 -10,-2.14895 -4.44776,-0.50838 -9.28685,-1.17793 -10.75351,-1.4879 -1.46667,-0.30997 -8.06667,-1.41442 -14.66667,-2.45434 -67.27918,-10.60069 -119.79154,-37.43217 -137.79732,-70.40831 -9.71233,-17.78736 -9.9234,-19.74657 -10.29053,-95.52067 -0.32587,-67.25758 -0.32587,-67.25758 -4.04111,-70 -4.97935,-3.67553 -29.60566,-18.1412 -41.20438,-24.20374 -5.13333,-2.68314 -9.63333,-5.27808 -10,-5.76653 -0.5914,-0.78783 -14.42186,-8.72157 -34,-19.50385 -3.66667,-2.01934 -9.66667,-5.56077 -13.33333,-7.86984 -3.66667,-2.30907 -10.866678,-6.50075 -16.000009,-9.31484 -5.133334,-2.81409 -14.133335,-7.95692 -20.000005,-11.42852 -11.80786,-6.98729 -18.95799,-11.03366 -34.33171,-19.42886 -41.1785793,-22.48657 -43.9162693,-63.53487 -5.55071,-83.22625 3.57197,-1.83333 10.40677,-5.67451 15.18845,-8.53596 4.78169,-2.86145 11.09397,-6.53527 14.02731,-8.16404 2.93333,-1.62877 10.13333,-5.62604 16,-8.88283 5.866665,-3.25679 16.872486,-9.63298 24.457376,-14.1693 7.584898,-4.53633 14.117308,-8.24787 14.516478,-8.24787 0.39916,0 10.99334,-5.93445 23.54262,-13.18767 12.54928,-7.25321 33.01686,-19.02516 45.48353,-26.15987 12.46667,-7.13471 26.56667,-15.2245 31.33334,-17.97732 4.76666,-2.75281 18.26666,-10.38793 30,-16.96694 11.73333,-6.579 31.53333,-17.8538 44,-25.055119 12.46667,-7.20132 30.15395,-17.22703 39.30508,-22.27938 9.15113,-5.05234 19.65113,-11.17586 23.33333,-13.60781 3.68221,-2.43195 9.83581,-6.00465 13.67467,-7.93934 3.83885,-1.93469 11.93885,-6.44238 18,-10.0171 11.92283,-7.03179 18.00124,-10.49247 28.35359,-16.14279 10.79474,-5.89179 16.15664,-8.97792 21.92456,-12.61905 2.98749,-1.88592 8.27662,-4.5448697 11.75362,-5.908779 18.8851,-7.40797983 23.21036,-6.0482198 73.65516,23.155489 9.9,5.73135 20.1,11.59871 22.66666,13.03857 2.56667,1.43987 5.26667,3.09534 6,3.67883 0.73334,0.5835 6.73334,4.00839 13.33334,7.61089 21.46245,11.71489 87.68459,49.181219 100.14636,56.659539 6.68049,4.00898 13.11455,7.66058 14.2979,8.11467 1.18334,0.4541 12.81748,7.0774 25.85364,14.71846 25.21187,14.77778 27.66655,16.18388 46.36877,26.56119 6.6,3.66214 15,8.60376 18.66667,10.98137 3.66666,2.37761 12.4726,7.38152 19.56874,11.1198 7.09615,3.73828 16.09615,8.83068 20,11.31643 3.90386,2.48576 14.59792,8.59216 23.76459,13.56978 9.16667,4.97762 19.06667,10.6329 22,12.56729 2.93333,1.93438 6.98334,4.3501 9,5.36827 2.01667,1.01816 3.66667,2.8666 3.66667,4.10763 0,1.89743 1.86005,2.36247 11.69154,2.92304 26.63848,1.51885 39.99538,14.90517 46.26805,46.36993 2.78962,13.99316 28.19823,135.68609 35.35559,169.33333 20.65408,97.09625 21.57112,101.9178 20.95698,110.18556 -2.7934,37.60594 -47.16455,55.27353 -74.81243,29.7886 -11.41608,-10.52297 -9.97077,-5.16788 -38.13799,-141.30749 -4.3242,-20.9 -10.59058,-51.13073 -13.92529,-67.17939 -3.33472,-16.04866 -6.06312,-29.69866 -6.06312,-30.33333 0,-1.60547 -2.45796,-1.44229 -4.38961,0.29143 -1.83002,1.6425 -11.18145,7.0572 -22.94372,13.28497 -4.4,2.32967 -8.9,5.01493 -10,5.96725 -1.1,0.95232 -6.57914,4.09363 -12.17587,6.98069 -5.59673,2.88707 -11.89673,6.46554 -14,7.95216 -2.10327,1.48662 -12.22413,7.33528 -22.4908,12.99702 -10.26667,5.66174 -21.66915,12.27088 -25.33885,14.68698 -3.6697,2.4161 -10.40277,6.28866 -14.96238,8.60569 -4.55961,2.31703 -8.69353,4.86538 -9.18649,5.663 -0.49296,0.79762 -1.0312,32.71772 -1.19608,70.93354 -0.17929,41.55379 -0.83214,71.09794 -1.62416,73.50019 -15.05056,45.64902 -69.06283,78.22043 -149.16241,89.95049 -5.05797,0.74071 -14.5963,2.3435 -21.1963,3.56175 -13.75311,2.53861 -140.97042,4.21057 -144.57983,1.90015 z m 123.91316,-85.44592 c 49.20666,-5.72697 99.89826,-20.49447 105.35599,-30.69234 1.3736,-2.56659 2.01278,-68.40962 0.68495,-70.55809 -1.4971,-2.42235 -3.69468,-1.60842 -17.82107,6.60043 -7.57184,4.4 -14.01274,8 -14.31312,8 -0.30038,0 -4.60228,2.57951 -9.55978,5.73224 -4.9575,3.15274 -12.91364,7.7322 -17.6803,10.17659 -4.76667,2.44439 -10.16667,5.46104 -12,6.70366 -1.83334,1.24263 -8.13334,4.85879 -14,8.03593 -5.86667,3.17713 -15.63757,8.98097 -21.71311,12.89743 -6.07555,3.91645 -11.31733,7.12082 -11.6484,7.12082 -0.33108,0 -5.56018,2.74343 -11.62023,6.09651 -28.7657,15.91634 -37.30461,15.3298 -72.5044,-4.98035 -11.6493,-6.7216 -25.8903,-14.79861 -31.64668,-17.94892 -5.75637,-3.15031 -11.15637,-6.28503 -12,-6.96606 -0.84362,-0.68102 -9.03386,-5.41738 -18.20052,-10.52524 -9.16667,-5.10786 -25.82943,-14.51606 -37.02835,-20.90712 -27.23941,-15.54511 -24.89393,-17.63475 -25.34688,22.58212 -0.44236,39.27672 -0.61571,38.2319 7.09271,42.74933 18.5226,10.85496 42.89904,17.15478 97.94918,25.31386 22.13437,3.28058 89.84876,3.61284 116.00001,0.5692 z m -32,-122.74715 c 11.36666,-6.64307 24.26666,-14.08447 28.66666,-16.53644 15.74207,-8.7725 26.74117,-14.95989 31.33334,-17.62611 11.40643,-6.6226 134.61435,-77.15599 140,-80.14643 9.0034,-4.99923 32.40243,-19.0709 34.53876,-20.77085 1.38355,-1.10095 -33.75861,-1.66366 -134.66667,-2.15636 -136.53876,-0.66667 -136.53876,-0.66667 -142.97957,-3.83764 -33.36983,-16.42879 -33.28322,-62.65254 0.14823,-79.11337 8.90039,-4.38233 8.90039,-4.38233 134.92982,-5.04899 126.02943,-0.66667 126.02943,-0.66667 114.02943,-6.41759 -10.06116,-4.82176 -17.72431,-9.08235 -34,-18.90351 -8.0965,-4.88562 -25.55519,-14.6789 -26.16841,-14.6789 -0.4143,0 -2.34589,-1.12318 -4.29243,-2.49595 -1.94654,-1.37277 -6.83916,-4.25861 -10.87249,-6.41299 -4.03334,-2.15438 -9.77927,-5.47304 -12.76874,-7.3748 -2.98948,-1.90176 -11.38948,-6.60047 -18.66667,-10.44158 -7.27719,-3.84111 -18.93126,-10.4105 -25.89793,-14.59864 -6.96666,-4.18814 -17.26984,-10.09155 -22.89595,-13.11867 -5.6261,-3.02713 -13.4261,-7.40816 -17.33333,-9.73563 -3.90723,-2.32747 -11.00405,-6.3416 -15.77072,-8.92028 -4.76667,-2.57869 -11.65866,-6.68644 -15.31553,-9.12833 -3.65688,-2.44189 -7.16426,-4.4398 -7.79418,-4.4398 -0.62991,0 -2.73792,-1.06973 -4.68446,-2.37718 -11.88353,-7.981899 -14.21252,-7.646239 -34.8725,5.02582 -3.3,2.02409 -10.09212,5.88981 -15.09361,8.59048 -5.00149,2.70067 -15.06566,8.47669 -22.36484,12.83559 -7.29917,4.35891 -13.70704,7.92643 -14.23972,7.92784 -0.53267,0.001 -6.0685,3.07958 -12.30183,6.8404 -10.87279,6.56 -21.01081,12.37651 -42.66667,24.47927 -5.5,3.07377 -13.9,7.8577 -18.66666,10.63096 -4.76667,2.77326 -11.36667,6.54426 -14.66667,8.37999 -3.3,1.83573 -9.3,5.27309 -13.33334,7.63858 -4.03333,2.36549 -14.53333,8.34816 -23.33333,13.29481 -8.8,4.94665 -22,12.54187 -29.33333,16.87828 -7.33334,4.3364 -14.23334,8.27228 -15.33334,8.74639 -2.14963,0.92651 -14.18883,7.74152 -31.33333,17.73681 -5.86667,3.42028 -11.56667,6.65171 -12.66667,7.18095 -1.1,0.52925 -3.2,1.68978 -4.66667,2.57895 -1.46666,0.88918 -9.39462,5.47549 -17.61768,10.19181 -8.22306,4.71632 -15.23208,9.30754 -15.57559,10.20272 -0.51055,1.33047 12.24119,11.21753 14.4677,11.21753 0.35682,0 5.21563,2.7 10.79735,6 5.58171,3.3 10.42781,6 10.76911,6 0.3413,0 3.90337,2.1 7.91572,4.66667 4.01235,2.56667 7.63184,4.66667 8.04333,4.66667 0.41148,0 3.84983,2.00512 7.64078,4.45582 7.07994,4.57692 13.89319,8.52402 25.55929,14.80718 3.66666,1.9748 8.46666,4.73317 10.66666,6.12971 2.2,1.39654 7.44199,4.35908 11.64886,6.58343 4.20688,2.22435 15.00688,8.43251 24,13.79591 8.99313,5.36341 25.95115,15.06903 37.68448,21.56806 11.73333,6.49902 24.45451,13.80619 28.26928,16.23815 3.81478,2.43196 7.2106,4.42174 7.54628,4.42174 0.33567,0 11.0145,6.09319 23.73071,13.54041 12.71622,7.44723 25.5204,14.85251 28.45373,16.45617 2.93333,1.60366 10.0034,5.46357 15.71126,8.57759 5.70785,3.11401 18.90785,10.70236 29.33333,16.86298 23.268,13.74953 21.21203,13.78806 46.28875,-0.86763 z M 2673.5391,574.81215 c -21.4669,-3.20812 -31.4259,-9.98776 -27.845,-18.95559 1.5279,-3.82615 4.5988,-11.75664 6.8244,-17.62331 2.2256,-5.86666 4.2038,-10.85479 4.3961,-11.08472 0.1922,-0.22994 3.3118,1.13084 6.9323,3.02394 22.0184,11.51314 41.7238,5.73785 49.8357,-14.60588 3.1899,-8 3.1899,-8 3.5691,-131.66667 l 0.3792,-123.66668 h 23.3743 23.3744 l -0.5251,123.00001 c -0.5088,119.14698 -0.613,123.38801 -3.3271,135.38641 -9.2916,41.07599 -42.8937,62.78218 -86.9883,56.19249 z M 1416.2058,416.89992 V 260.23324 h 22 c 22,0 22,0 22,14.66667 0,8.06667 0.288,14.66667 0.64,14.66667 0.352,0 4.3249,-3.5174 8.8286,-7.81645 31.6004,-30.16412 83.1756,-34.41667 124.3556,-10.25353 63.5818,37.30786 68.908,152.77157 9.2107,199.67247 -39.3173,30.88937 -97.5126,30.18113 -131.4869,-1.6002 -4.705,-4.40126 -8.9281,-8.00229 -9.3846,-8.00229 -0.4565,0 -0.8301,25.2 -0.8301,56.00001 v 56 h -22.6667 -22.6666 z m 133.2932,33.12159 c 63.9327,-17.82339 66.3329,-127.69848 3.2756,-149.94587 -47.3477,-16.70485 -90.5688,18.68452 -90.5688,74.15761 0,54.85288 39.4697,89.12066 87.2932,75.78826 z m 142.2623,122.65619 c -0.4889,-0.48889 -0.8889,-70.98889 -0.8889,-156.66667 V 260.23324 h 22.0001 c 22,0 22,0 22,14.66667 0,17.0401 -0.1341,16.93673 9.3788,7.23184 27.6739,-28.23221 78.2579,-34.36276 118.2806,-14.33507 82.1129,41.09 75.4985,186.36943 -9.9527,218.60259 -37.0574,13.97847 -80.0371,7.2224 -105.9112,-16.64842 -4.8791,-4.50135 -9.2291,-8.18427 -9.6666,-8.18427 -0.4376,0 -0.7956,25.2 -0.7956,56.00001 v 56 h -21.7778 c -11.9778,0 -22.1778,-0.4 -22.6667,-0.88889 z m 128.0885,-121.24921 c 73.2497,-8.89249 70.396,-141.72191 -3.3109,-154.113 -79.5429,-13.37218 -113.1156,111.72782 -39.9375,148.81672 12.9149,6.54569 22.8922,7.76752 43.2484,5.29628 z m 684.356,40.06472 c -30.2465,-6.49618 -53.4853,-29.66204 -62.7904,-62.59329 -2.9458,-10.42498 -3.0256,-12.45667 -3.5221,-89.66667 l -0.5081,-79.00001 h 22.6607 22.6608 l 0.4893,72.33334 c 0.5395,79.73629 0.5202,79.53672 9.2622,95.93835 19.4153,36.42685 80.4774,30.24701 99.6409,-10.08424 7.5633,-15.91742 8.1067,-22.18288 8.1067,-93.46457 v -64.72288 h 23.3333 23.3334 v 114.66667 114.66668 h -22.6667 c -22.6667,0 -22.6667,0 -22.6667,-14.00001 0,-16.53327 0.657,-16.20052 -10.7463,-5.44329 -21.0517,19.85911 -54.8188,28.19293 -86.587,21.36992 z m -1440,-2.55988 c 0,-0.34829 3.5406,-8.89829 7.8681,-19 4.3274,-10.10171 18.3661,-43.56675 31.197,-74.36675 12.8309,-30.8 29.4572,-70.7 36.9474,-88.66667 15.7438,-37.76476 36.8055,-88.57595 47.6795,-115.02669 l 7.5479,-18.36003 26.4918,0.36002 c 29.3791,0.39927 26.1944,-2.60678 43.4661,41.0267 2.7576,6.96667 6.601,16.26667 8.5408,20.66667 3.4666,7.86336 41.9052,99.95663 54.2604,130 5.4078,13.14977 19.5654,46.86982 43.6653,104 3.2482,7.7 6.4377,15.35 7.0877,17 2.9056,7.37502 -49.052,4.06142 -52.267,-3.33333 -1.5144,-3.48333 -8.1582,-19.53333 -14.7639,-35.66667 -6.6057,-16.13333 -12.448,-29.80603 -12.9829,-30.38378 -1.487,-1.60626 -152.1474,-1.88282 -154.1052,-0.28288 -0.8974,0.73333 -3.4639,6.13333 -5.7035,12 -2.2396,5.86666 -8.6149,21.70622 -14.1674,35.19902 -5.5525,13.49279 -10.0955,24.74279 -10.0955,25 0,0.2572 -11.4,0.46765 -25.3333,0.46765 -13.9333,0 -25.3333,-0.28497 -25.3333,-0.63326 z m 216.2872,-114.7651 c 0.4024,-0.40243 -5.2556,-15.55243 -12.5735,-33.66667 -7.3178,-18.11424 -20.4207,-50.55862 -29.1175,-72.09862 -16.7047,-41.37378 -16.6976,-41.35853 -18.3914,-39.41414 -1.4827,1.70214 -57.5382,142.28302 -57.5382,144.29935 0,1.65325 115.9796,2.52105 117.6206,0.88008 z m 687.7128,-49.93498 V 158.89991 h 22.6667 c 21.7687,0 22.6677,0.10564 22.6938,2.66667 0.015,1.46666 0.027,15.86666 0.027,32 0,16.13333 -0.012,89.33333 -0.027,162.66667 l -0.027,133.33334 h -22.6666 -22.6667 z m 115.5555,164.44445 c -1.1105,-1.11052 -1.1886,-223.4451 -0.079,-226.33541 0.6938,-1.808 4.0243,-2.10905 23.3333,-2.10905 h 22.524 v 114.66667 114.66668 h -22.4444 c -12.3445,0 -22.8445,-0.4 -23.3334,-0.88889 z M 2194.8725,324.20176 V 158.83694 l 23,0.36482 23,0.36482 0.3416,102.33333 c 0.1879,56.28334 0.7879,102.35574 1.3333,102.38312 0.5455,0.0274 24.0917,-23.39587 52.3251,-52.05167 l 51.3333,-52.10145 27.6093,0.385 c 27.6094,0.385 27.6094,0.385 24,4.51719 -1.9851,2.2727 -22.5093,23.46411 -45.6093,47.09201 -23.1,23.62791 -42.1953,43.82499 -42.4339,44.88241 -0.3113,1.37921 71.7238,99.46141 96.1328,130.8934 1.0262,1.32144 -4.4702,1.66651 -26.5356,1.66594 l -27.83,-7.3e-4 -28.6666,-38.27153 c -15.7667,-21.04935 -32.1996,-42.99966 -36.5176,-48.77848 -10.4597,-13.99841 -8.9621,-14.27966 -28.0603,5.26951 -16.7204,17.11529 -16.7204,17.11529 -16.7379,49.44862 l -0.018,32.33334 h -23.3333 -23.3333 z M 2094.1022,214.342 c -15.9328,-6.93767 -22.6136,-26.78568 -14.4979,-43.07176 13.5989,-27.28944 54.6109,-19.65985 58.805,10.93967 3.1193,22.75771 -22.7503,41.51868 -44.3071,32.13209 z m 633.3917,0.0245 c -13.8794,-6.04656 -21.9396,-26.01509 -16.1215,-39.93975 13.123,-31.40782 60.8817,-22.53973 60.826,11.29449 -0.036,21.77804 -24.494,37.45001 -44.7045,28.64526 z"
       id="path1" />
  </g>
</svg>
